<svg xmlns="http://www.w3.org/2000/svg" width="72" height="72" viewBox="0 0 72 72">
  <g id="logo" transform="translate(-24 -24)">
    <path id="Rectangle_3" data-name="Rectangle 3" d="M24,42A18,18,0,0,1,42,24H78A18,18,0,0,1,96,42V78A18,18,0,0,1,78,96H42A18,18,0,0,1,24,78Z" fill="#f25a69"/>
    <g id="Group_13237" data-name="Group 13237" transform="translate(42.169 39.652)" opacity="0.999">
      <path id="Path_1" data-name="Path 1" d="M5.882,7.931H0V0H15.416V40.7H5.882Z" fill="#fff" opacity="0.75"/>
      <path id="Path_2" data-name="Path 2" d="M17.584,21.72a10.815,10.815,0,0,0-5.7-2.746,7.533,7.533,0,0,0,3.467-2.99A9.445,9.445,0,0,0,16.717,10.8a10.41,10.41,0,0,0-2.972-7.687C10.525.122,5.449,0,3.219,0H0V7.321H1.486c1.733,0,3.591,0,4.953,1.037a4.124,4.124,0,0,1,1.61,3.417,4.3,4.3,0,0,1-1.671,3.6,8.954,8.954,0,0,1-4.829,1.159H0V23.49H2.6c1.919,0,5.139,0,6.811,1.525a4.344,4.344,0,0,1,1.3,3.295,4.462,4.462,0,0,1-1.362,3.417c-1.733,1.587-4.644,1.647-7.058,1.647H0V40.7H6.13c2.539,0,7.491-.244,10.9-3.477a11.052,11.052,0,0,0,3.219-8.237A9.852,9.852,0,0,0,17.584,21.72Z" transform="translate(15.416)" fill="#fff"/>
    </g>
  </g>
</svg>
